<svg width="106" height="56" fill="none" xmlns="http://www.w3.org/2000/svg"><path d="M0 41.374c0-.867.109-1.684.326-2.45a4.855 4.855 0 011.113-2.001c.526-.571 1.237-1.021 2.133-1.35.894-.333 2.018-.499 3.374-.499h.693c.869 0 1.713.054 2.532.16.82.11 1.625.267 2.417.47v3.125a16.2 16.2 0 00-1.352-.329c-.454-.088-.901-.16-1.341-.218a18.704 18.704 0 00-1.266-.124 16.21 16.21 0 00-1.085-.04c-.998 0-1.77.092-2.314.28-.544.183-.94.441-1.188.773-.25.332-.397.729-.441 1.19-.047.459-.07.962-.07 1.511 0 .55.023 1.054.07 1.516.044.458.19.858.441 1.198.248.337.644.598 1.188.782.544.187 1.316.28 2.314.28a17.971 17.971 0 002.351-.165c.44-.057.887-.133 1.34-.226.457-.096.908-.209 1.353-.338v3.142c-.792.192-1.597.343-2.417.453-.82.107-1.663.16-2.532.16h-.693c-1.356 0-2.48-.165-3.374-.498-.896-.332-1.607-.782-2.133-1.35a4.856 4.856 0 01-1.113-2.001A8.957 8.957 0 010 42.37v-.997zm14.51 0c0-.867.11-1.684.326-2.45a4.703 4.703 0 011.143-2.001c.541-.571 1.273-1.021 2.194-1.35.921-.333 2.08-.499 3.477-.499h.689c1.394 0 2.552.166 3.473.498.921.33 1.654.78 2.198 1.351a4.703 4.703 0 011.143 2.001c.217.766.326 1.583.326 2.45v.997c0 .87-.109 1.688-.326 2.454a4.704 4.704 0 01-1.143 2c-.544.57-1.277 1.02-2.198 1.351-.921.333-2.079.499-3.473.499h-.689c-1.397 0-2.556-.166-3.477-.498-.921-.333-1.652-.783-2.194-1.351a4.704 4.704 0 01-1.143-2.001 8.958 8.958 0 01-.325-2.454v-.997zm3.453.498c0 .486.023.956.07 1.409a2.4 2.4 0 00.441 1.198c.248.346.644.62 1.188.823.545.206 1.321.31 2.33.31 1.012 0 1.79-.104 2.335-.31.542-.203.938-.477 1.188-.823a2.4 2.4 0 00.441-1.198c.044-.453.066-.923.066-1.409s-.022-.95-.066-1.395a2.39 2.39 0 00-.441-1.19c-.25-.344-.646-.618-1.188-.824-.544-.203-1.323-.305-2.335-.305-1.009 0-1.785.102-2.33.305-.544.206-.94.48-1.188.823a2.39 2.39 0 00-.441 1.19c-.047.445-.07.91-.07 1.396zm24.199 1.82v-8.235h3.456v12.835h-3.456l-6.736-8.24v8.24h-3.452V35.457h3.452l6.736 8.235zm5.952-2.318c0-.867.108-1.684.326-2.45a4.854 4.854 0 011.113-2.001c.526-.571 1.235-1.021 2.129-1.35.896-.333 2.022-.499 3.378-.499h.693c.869 0 1.713.054 2.532.16.82.11 1.625.267 2.417.47v3.125a16.863 16.863 0 00-1.353-.329 22.19 22.19 0 00-1.344-.218 18.37 18.37 0 00-1.267-.124 16.076 16.076 0 00-1.084-.04c-.998 0-1.768.092-2.31.28-.545.183-.942.441-1.192.773s-.398.729-.441 1.19c-.044.459-.066.962-.066 1.511 0 .55.021 1.054.066 1.516.044.458.19.858.44 1.198.251.337.648.598 1.193.782.542.187 1.312.28 2.31.28a17.822 17.822 0 002.35-.165c.443-.057.892-.133 1.345-.226.454-.096.905-.209 1.353-.338v3.142c-.792.192-1.597.343-2.417.453-.82.107-1.663.16-2.532.16h-.693c-1.356 0-2.482-.165-3.378-.498-.894-.332-1.604-.782-2.129-1.35a4.855 4.855 0 01-1.113-2.001 8.954 8.954 0 01-.326-2.454v-.997zm27-2.853h-8.848v1.914h6.93v3.068h-6.93v1.725h8.848v3.064h-12.3V35.457h12.3v3.064zm15.335 1.914c0 .64-.08 1.237-.24 1.791a3.542 3.542 0 01-.816 1.458c-.385.415-.906.744-1.563.988-.66.242-1.49.363-2.487.363h-.537c-.69 0-1.365-.007-2.025-.02a13.232 13.232 0 01-1.926-.174v3.45H77.4V35.458c1.1-.129 2.254-.225 3.464-.288a68.356 68.356 0 013.56-.095h.536c1.075 0 1.965.12 2.669.363.704.241 1.266.57 1.687.988.423.414.717.903.882 1.466.168.56.252 1.153.252 1.778v.766zm-6.179 1.536c.677 0 1.2-.048 1.572-.144.371-.096.643-.23.817-.404a.985.985 0 00.296-.605c.025-.228.038-.483.038-.766 0-.28-.013-.538-.037-.774a.975.975 0 00-.29-.605c-.164-.165-.42-.295-.766-.391-.344-.096-.843-.144-1.498-.144-.41 0-.943.012-1.6.037-.66.027-1.309.073-1.947.136v3.487c.6.077 1.169.125 1.708.144.536.02 1.105.03 1.707.03zm12.51 6.32v-9.77h-4.986v-3.064h13.45v3.064h-5.007v9.77H96.78zM5.23 56l.318-.317v-.642h-.64v.317H3.304v-1.923h1.604v.32h.64v-.637l-.318-.326H2.978l-.313.326v2.565l.313.317H5.23zm3.964 0v-2.565h1.118v-.643H7.429v.643h1.126V56h.639zm3.687-1.598v-.967h1.605v.967H12.88zm0 1.598v-.96h1.926l.314-.32v-1.602l-.314-.326h-2.57V56h.644zm4.904-.642v-1.923h1.6v1.923h-1.6zm1.922.642l.318-.317v-2.565l-.317-.326H17.46l-.318.326v2.565l.318.317h2.247zm3.028 0l1.6-2.141V56h.64v-3.208h-.64l-1.6 2.137v-2.137h-.643V56h.643zm5.935 0v-2.565h1.114v-.643h-2.883v.643h1.126V56h.643zm5.77 0v-.642h-2.082v-.639h1.922v-.638h-1.922v-.646h2.083v-.643h-2.727V56h2.727zm2.616 0v-1.923l.639-.642h.965V56h.635v-3.208h-1.922l-.96.964V56h.643zm4.95-.642v-.956h1.6v.956h-1.6zm1.921.642l.318-.317V54.08l-.318-.321h-1.922v-.968h-.643V56h2.565zm2.983 0v-1.28h1.6V56h.64v-3.208h-.64v1.29h-1.6v-1.29h-.644V56h.644zm4.9-1.598v-.32l.639-.647h.965v.967h-1.605zm0 1.598v-.96h1.604V56h.64v-3.208h-1.927l-.957.968V56h.64zm4.95-1.598v-.967h1.604v.967h-1.605zm0 1.598v-.317l.638-.642h.966V56h.635v-3.208h-2.566l-.317.326v1.601l.317.322-.317.317V56h.643zm8.393 0v-1.28h.957l.643.638V56h.64v-.96l-.64-.638.64-.642v-.968h-.64v.647l-.643.642h-.957v-1.289h-.644V56h.644zm4.9-.642v-1.923h1.604v1.923h-1.604zm1.926.642l.318-.317v-2.565l-.318-.326h-2.252l-.314.326v2.565l.314.317h2.252zm3.023 0v-2.162l.858 1.231h.54l.838-1.23V56h.643v-3.208h-.618l-1.139 1.553-1.122-1.553h-.643V56h.643zm5.59 0v-2.565h1.6V56h.639v-3.208h-2.883V56h.643zm4.903-1.598v-.32l.636-.647h.965v.967h-1.6zm0 1.598v-.96h1.6V56h.64v-3.208H85.81l-.957.968V56h.643zm4.946 0v-1.28h1.604V56h.635v-3.208h-.635v1.29h-1.604v-1.29h-.64V56h.64zm4.95 0l1.604-2.141V56h.635v-3.208h-.635L95.39 54.93v-2.137h-.643V56h.643zm4.949-1.598v-.967h1.6v.967h-1.6zm0 1.598v-.317l.639-.642h.961V56h.64v-3.208h-2.566l-.317.326v1.601l.317.322-.317.317V56h.643zM74.872 13.218V4.59h.888V2.424l-6.253.001.001 2.167h.887v5.95L52.763 0 17.097 21.15l1.276 2.144 7.16-4.248v9.852h2.498V17.666h-.169L52.757 2.902l25.87 15.465v10.53h2.496V19.86l5.74 3.432 1.283-2.139-13.274-7.934z" fill="#000"/></svg>