<svg width="90" height="49" fill="none" xmlns="http://www.w3.org/2000/svg"><path d="M.47 35.934c0-.741.093-1.44.277-2.094a4.163 4.163 0 01.942-1.711c.444-.488 1.046-.873 1.805-1.155.756-.284 1.707-.426 2.855-.426h.586c.735 0 1.45.046 2.143.137.693.094 1.375.228 2.045.402v2.672a13.54 13.54 0 00-1.144-.282 18.693 18.693 0 00-1.135-.187 15.781 15.781 0 00-1.071-.105 13.597 13.597 0 00-.918-.035c-.845 0-1.498.08-1.958.239-.461.157-.796.378-1.006.662a1.976 1.976 0 00-.373 1.017c-.04.392-.06.823-.06 1.292 0 .47.02.901.06 1.296.037.392.162.733.373 1.024.21.289.545.512 1.006.67.46.159 1.113.239 1.958.239a15.07 15.07 0 001.99-.141c.371-.05.75-.114 1.133-.194a15.68 15.68 0 001.145-.289v2.686c-.67.165-1.352.294-2.045.388a16.37 16.37 0 01-2.143.137h-.586c-1.148 0-2.1-.142-2.855-.426-.759-.284-1.36-.669-1.805-1.155a4.163 4.163 0 01-.942-1.71 7.732 7.732 0 01-.276-2.099v-.852zm12.28 0c0-.741.092-1.44.275-2.094a4.031 4.031 0 01.967-1.711c.459-.488 1.078-.873 1.857-1.155.78-.284 1.76-.426 2.942-.426h.583c1.18 0 2.16.142 2.94.426.779.282 1.399.667 1.86 1.155.46.486.782 1.056.966 1.71a7.72 7.72 0 01.276 2.095v.852a7.72 7.72 0 01-.276 2.098 4.031 4.031 0 01-.966 1.711c-.461.486-1.081.871-1.86 1.155-.78.284-1.76.426-2.94.426h-.582c-1.183 0-2.163-.142-2.943-.426-.78-.284-1.398-.669-1.857-1.155a4.031 4.031 0 01-.967-1.71 7.733 7.733 0 01-.275-2.099v-.852zm2.921.426c0 .416.02.817.06 1.204.037.388.161.729.373 1.025.21.295.544.53 1.005.704.46.176 1.118.264 1.972.264.857 0 1.515-.088 1.976-.264.458-.174.793-.409 1.005-.704a2.06 2.06 0 00.373-1.025c.038-.387.056-.788.056-1.204 0-.415-.018-.813-.056-1.193a2.057 2.057 0 00-.373-1.018c-.212-.293-.547-.528-1.005-.704-.461-.173-1.12-.26-1.976-.26-.854 0-1.511.087-1.972.26-.46.176-.796.411-1.005.704a2.056 2.056 0 00-.373 1.018c-.04.38-.06.778-.06 1.193zm20.478 1.556v-7.04h2.925v10.973h-2.925l-5.7-7.045v7.045h-2.921V30.876h2.921l5.7 7.04zm5.036-1.982c0-.741.092-1.44.276-2.094a4.163 4.163 0 01.942-1.711c.445-.488 1.045-.873 1.801-1.155.759-.284 1.712-.426 2.859-.426h.586c.736 0 1.45.046 2.143.137a17.49 17.49 0 012.046.402v2.672c-.38-.11-.761-.205-1.145-.282a18.502 18.502 0 00-1.138-.187 15.52 15.52 0 00-1.072-.105c-.34-.024-.645-.035-.918-.035-.844 0-1.496.08-1.954.239-.46.157-.797.378-1.009.662a1.976 1.976 0 00-.373 1.017 13.48 13.48 0 00-.056 1.292c0 .47.018.901.056 1.296.037.392.161.733.373 1.024.212.289.548.512 1.009.67.458.159 1.11.239 1.954.239a14.948 14.948 0 001.99-.141c.374-.05.754-.114 1.138-.194.384-.082.765-.178 1.145-.289v2.686c-.67.165-1.352.294-2.046.388-.693.091-1.407.137-2.143.137h-.586c-1.147 0-2.1-.142-2.859-.426-.756-.284-1.356-.669-1.8-1.155a4.163 4.163 0 01-.943-1.71 7.733 7.733 0 01-.276-2.099v-.852zm22.848-2.44h-7.487v1.638h5.864v2.622h-5.864v1.475h7.487v2.62H53.625V30.876h10.408v2.619zm12.977 1.638a5.57 5.57 0 01-.203 1.531 3.037 3.037 0 01-.691 1.246c-.326.355-.767.636-1.323.845-.558.207-1.26.31-2.104.31h-.454c-.584 0-1.156-.006-1.714-.018a10.9 10.9 0 01-1.63-.148v2.95h-2.925V30.876c.931-.11 1.908-.192 2.932-.246a57.197 57.197 0 013.012-.081h.454c.91 0 1.662.103 2.258.31.596.206 1.072.488 1.428.845.358.354.607.772.747 1.253.142.479.213.986.213 1.52v.656zm-5.229 1.313c.572 0 1.016-.041 1.33-.123.314-.083.544-.198.691-.346a.845.845 0 00.251-.517c.021-.195.032-.413.032-.655 0-.24-.01-.46-.032-.662a.837.837 0 00-.244-.517c-.14-.14-.356-.252-.65-.335-.29-.082-.712-.123-1.266-.123-.347 0-.798.01-1.355.032a28.66 28.66 0 00-1.647.116v2.982c.507.066.989.107 1.445.123a40.1 40.1 0 001.445.025zm10.586 5.404v-8.354h-4.22v-2.62H89.53v2.62h-4.237v8.354h-2.925zm-77.47 6.59l.268-.271v-.55h-.54v.272H3.266v-1.644h1.357v.274h.541v-.546l-.268-.278H2.99l-.265.279v2.193l.265.27h1.906zm3.354 0v-2.193h.946v-.55h-2.44v.55h.953v2.193h.54zm3.12-1.366v-.827h1.358v.827H11.37zm0 1.366v-.82h1.63l.265-.275v-1.37l-.265-.278h-2.174v2.743h.544zm4.15-.55v-1.643h1.354v1.644h-1.354zm1.627.55l.268-.271v-2.194l-.268-.278h-1.903l-.268.279v2.193l.268.27h1.903zm2.561 0l1.355-1.83v1.83h.54v-2.743h-.54l-1.355 1.828v-1.828h-.544v2.743h.544zm5.023 0v-2.193h.942v-.55h-2.44v.55h.953v2.193h.545zm4.883 0v-.55h-1.763v-.545h1.627v-.546h-1.627v-.552h1.763v-.55h-2.307v2.743h2.307zm2.213 0v-1.644l.54-.55h.817v2.194h.538v-2.743h-1.627l-.813.824v1.919h.545zm4.188-.55v-.816h1.354v.817h-1.354zm1.627.55l.268-.271v-1.37l-.269-.274h-1.626v-.828h-.544v2.743h2.17zm2.523 0v-1.095h1.354v1.095h.541v-2.743h-.54v1.102h-1.355v-1.102h-.545v2.743h.545zm4.146-1.366v-.275l.541-.552h.817v.827h-1.358zm0 1.366v-.82h1.358v.82h.541v-2.743h-1.63l-.81.828v1.915h.541zm4.189-1.366v-.827h1.358v.827H48.5zm0 1.366v-.271l.54-.55h.818v.82h.537v-2.742h-2.171l-.269.279v1.369l.269.274-.269.272v.549h.545zm7.102 0v-1.095h.81l.545.546v.549h.54v-.82l-.54-.546.54-.55v-.827h-.54v.553l-.545.55h-.81v-1.103h-.544v2.743h.544zm4.147-.55v-1.643h1.358v1.644H59.75zm1.63.55l.269-.271v-2.194l-.27-.278h-1.905l-.265.279v2.193l.265.27h1.906zm2.558 0V46.59l.726 1.052h.457l.709-1.052v1.848h.544v-2.743h-.523l-.963 1.328-.95-1.328h-.544v2.743h.544zm4.73 0v-2.193h1.354v2.193h.54v-2.743h-2.439v2.743h.545zm4.15-1.366v-.275l.537-.552h.817v.827h-1.354zm0 1.366v-.82h1.354v.82h.54v-2.743h-1.63l-.809.828v1.915h.545zm4.184 0v-1.095h1.358v1.095h.538v-2.743h-.538v1.102h-1.358v-1.102h-.54v2.743h.54zm4.189 0l1.358-1.83v1.83h.537v-2.743h-.537l-1.358 1.828v-1.828h-.545v2.743h.545zm4.188-1.366v-.827h1.354v.827H85.38zm0 1.366v-.271l.541-.55h.813v.82h.541v-2.742h-2.17l-.27.279v1.369l.27.274-.27.272v.549h.545zM63.828 11.862V4.486h.751V2.634h-5.29v1.853h.75l.002 5.087L45.117.561 14.94 18.644l1.079 1.832 6.06-3.631v8.422h2.113v-9.602h-.143L45.114 3.042l21.891 13.222v9.003h2.113V17.54l4.857 2.934 1.086-1.829-11.233-6.783z" fill="#E2DFD3"/></svg>